<svg width="420" height="328" viewBox="0 0 420 328" fill="none" xmlns="http://www.w3.org/2000/svg">
<path d="M262.032 150.432L257.075 165.567C257.075 165.567 252.48 150.231 239.562 145.253C226.624 140.275 219.53 141.746 219.53 141.746C219.53 141.746 223.359 139.106 222.875 135.741C222.371 132.375 216.809 129.715 216.809 129.715L195.628 130.481C195.628 130.481 190.67 132.335 190.348 136.043C190.046 139.751 192.988 141.766 192.988 141.766C192.988 141.766 181.622 141.182 175.032 144.205C168.442 147.208 159.293 150.835 154.416 165.587C149.539 180.319 149.055 197.066 149.055 197.066C149.055 197.066 168.928 198.783 168.928 212.322C168.928 225.861 166.936 256.537 158.124 284.933H253.951C253.951 284.933 246.877 257.787 244.721 235.921C244.721 235.921 242.565 219.013 243.592 212.322C243.592 212.322 245.628 230.5 258.546 233.543C271.464 236.586 279.324 229.311 283.858 218.609C288.392 207.908 291.073 188.36 292 182.495C292.927 176.651 296.191 155.591 296.191 155.591C296.191 155.591 296.837 151.158 280.976 148.88C265.096 146.623 263.302 147.006 262.032 150.432Z" fill="#FFD400"/>
<path d="M188.51 109.826C188.51 109.826 184.238 93.3606 192.158 91.0833C192.158 91.0833 195.342 87.6372 198.325 86.3273C198.325 86.3273 190.908 77.2383 192.742 72.2806C194.576 67.323 199.796 66.0937 206.103 66.0131C212.411 65.9526 219.364 67.8671 219.767 72.7441C220.17 77.6211 213.842 86.1862 213.842 86.1862C213.842 86.1862 223.093 88.5642 223.516 96.2627C223.939 103.981 222.871 109.08 222.871 109.08L220.735 110.652L190.042 112.506L188.51 109.826Z" fill="#13152D"/>
<path d="M220.353 120.929C220.353 120.929 228.838 123.529 228.999 115.528C228.999 115.528 228.414 108.777 221.139 110.671L220.756 109.079C220.756 109.079 214.69 110.147 207.516 105.109C200.341 100.071 196.371 96.5039 196.371 96.5039C196.371 96.5039 192.905 104.867 191.474 106.903L191.454 110.812C191.454 110.812 184.582 108.676 183.332 115.528C183.332 115.528 183.353 120.99 187.726 121.413C192.099 121.836 191.897 120.607 191.897 120.607C191.897 120.607 192.905 129.031 197.621 131.469L197.157 137.656C197.157 137.656 200.482 140.699 206.79 139.954C213.098 139.208 215.053 137.515 215.053 137.515L214.69 131.469C214.69 131.449 219.265 128.446 220.353 120.929Z" fill="white"/>
<path d="M267.841 154.564C267.841 154.564 271.469 146.362 271.086 144.508C270.703 142.654 267.075 138.563 265.302 137.052C263.508 135.54 263.488 132.517 265.302 131.51C267.116 130.502 269.957 131.51 272.698 133.908C275.439 136.286 278.844 139.974 280.074 139.913C280.074 139.913 289.506 132.799 293.516 131.772C297.527 130.744 299.421 130.522 300.428 132.175C300.428 132.175 303.774 132.356 304.54 134.714C304.54 134.714 307.381 134.129 308.409 135.863C309.437 137.596 308.026 140.941 304.701 143.259C301.376 145.576 296.297 148.539 292.589 149.506C288.881 150.473 287.41 158.776 287.41 158.776C287.41 158.776 274.975 158.394 267.841 154.564Z" fill="white"/>
<path d="M146.734 197.651L148.649 205.027C148.649 205.027 155.944 201.238 154.251 198.416C152.559 195.595 146.734 197.651 146.734 197.651Z" fill="#13152D"/>
<path d="M270.069 147.572C270.069 147.572 268.981 153.819 267.832 154.565C266.704 155.311 261.424 152.167 262.331 149.607C263.217 147.068 270.069 147.572 270.069 147.572Z" fill="#13152D"/>
<path d="M290.166 150.795C290.166 150.795 287.445 156.397 287.687 158.675C287.687 158.675 295.688 158.715 296.171 155.591C296.554 153.133 290.166 150.795 290.166 150.795Z" fill="#13152D"/>
<path d="M175.842 162.828C178.39 162.828 180.457 160.761 180.457 158.213C180.457 155.664 178.39 153.598 175.842 153.598C173.293 153.598 171.227 155.664 171.227 158.213C171.227 160.761 173.293 162.828 175.842 162.828Z" fill="#13152D"/>
<path d="M222.872 109.079C222.872 109.079 223.94 103.96 223.517 96.2615C223.094 88.5429 213.843 86.185 213.843 86.185C213.843 86.185 220.171 77.6199 219.768 72.7429C219.426 68.6317 214.408 66.6165 209.047 66.1328C211.888 69.3774 217.572 77.6804 208.745 85.3385C208.745 85.3385 217.249 88.704 215.96 98.317C214.65 107.93 200.301 100.373 200.301 100.373C200.301 100.373 205.319 106.963 208.704 111.396L220.736 110.671L222.872 109.079Z" fill="white"/>
<path d="M294.499 255.852C294.096 255.691 279.465 240.193 279.465 240.193C279.485 239.427 294.116 224.816 294.116 224.816C294.882 225.582 280.633 239.83 280.633 239.83L294.902 254.925C294.761 255.792 294.64 255.852 294.499 255.852Z" fill="white"/>
<path d="M267.738 155.331C268.927 150.918 271.265 144.59 270.358 143.159C269.169 141.244 267.859 140.095 266.589 139.007C266.105 138.584 265.622 138.181 265.199 137.758C262.559 135.178 263.183 133.183 263.566 132.457C264.312 131.047 266.125 130.341 267.939 130.724C271.224 131.41 275.174 135.279 278.359 138.382C280.475 140.438 287.004 140.438 289.362 140.297C289.664 140.257 289.926 140.498 289.946 140.801C289.08 141.405 280.434 141.929 277.895 139.43C274.691 136.307 270.721 132.397 267.738 131.772C266.388 131.49 265.057 131.974 264.533 132.961C263.949 134.05 264.473 135.521 265.964 136.972C266.387 137.395 266.851 137.778 267.315 138.181C268.584 139.269 270.015 140.519 271.305 142.574C272.776 144.932 269.008 153.356 268.242 155.009C268.141 155.21 267.96 155.331 267.738 155.331Z" fill="#13152D"/>
<path d="M287.411 159.341C287.028 159.28 286.826 159.018 286.867 158.716C286.927 158.353 288.257 149.99 292.449 149.002C296.52 148.055 307.08 142.896 308.209 137.676C308.37 136.971 308.189 136.367 307.705 135.923C307.02 135.298 305.871 135.117 304.682 135.48C302.264 136.205 293.356 141.364 293.275 141.425C292.832 141.485 283.904 140.417 279.914 144.73C283.199 139.591 291.482 140.256 292.872 140.397C294.122 139.672 301.981 135.178 304.359 134.452C305.911 133.989 307.463 134.25 308.43 135.137C309.196 135.843 309.498 136.85 309.277 137.938C307.967 144.025 296.258 149.264 292.711 150.091C289.809 150.776 288.298 156.701 287.955 158.918C287.915 159.139 287.693 159.341 287.411 159.341Z" fill="#13152D"/>
<path d="M285.141 141.384C286.309 139.49 299.147 131.59 301.726 131.933C304.024 132.175 304.911 133.968 305.052 134.875C303.964 134.956 303.621 133.222 301.606 133.001C299.893 132.799 290.784 137.999 285.423 141.304C285.342 141.344 285.241 141.384 285.141 141.384Z" fill="#13152D"/>
<path d="M279.778 140.477C279.698 139.329 285.018 135.842 286.288 135.157C286.892 134.835 287.618 134.411 288.404 133.948C291.104 132.356 294.47 130.361 296.928 130.24C300.314 130.038 300.999 132.215 301.04 132.315C299.972 132.537 299.488 131.187 296.989 131.328C294.792 131.429 291.427 133.444 288.948 134.895C288.142 135.379 287.416 135.802 286.791 136.124C285.562 136.769 280.121 140.356 280.06 140.397C280 140.457 279.899 140.477 279.778 140.477Z" fill="#13152D"/>
<path d="M350.28 285.477H70.9805C70.9805 284.389 350.28 284.389 350.28 284.389C350.824 285.215 350.582 285.477 350.28 285.477Z" fill="#13152D"/>
<path d="M198.516 110.67C198.959 110.609 199.242 110.791 199.362 112.343C199.504 114.096 199.04 114.398 198.657 114.378C198.274 114.358 197.871 113.834 197.891 112.584C197.912 111.335 197.951 110.751 198.516 110.67Z" fill="#13152D"/>
<path d="M213.403 110.812C213.847 110.751 214.128 110.953 214.209 112.525C214.31 114.278 213.847 114.56 213.443 114.54C213.061 114.52 212.677 113.956 212.718 112.726C212.778 111.457 212.819 110.893 213.403 110.812Z" fill="#13152D"/>
<path d="M188.977 122.079C186.921 121.958 185.409 121.212 184.321 119.983C183.233 118.733 182.669 117.141 182.79 115.489C182.89 113.836 183.636 112.325 184.886 111.216C186.135 110.128 187.687 109.544 189.38 109.685C190.045 109.725 190.69 109.866 191.295 110.108C190.388 110.914 189.864 110.793 189.32 110.753C187.969 110.693 186.639 111.116 185.611 112.023C184.583 112.93 183.979 114.179 183.898 115.549C183.817 116.92 184.261 118.23 185.168 119.257C186.075 120.285 187.324 120.89 188.695 120.991C189.622 121.031 190.548 120.85 191.375 120.426C190.952 121.837 189.964 122.079 188.977 122.079Z" fill="#13152D"/>
<path d="M187.73 119.276C187.407 118.309 190.652 115.79 190.652 115.79L187.004 113.089C187.649 112.223 191.881 115.347 191.881 115.347C191.881 116.213 188.072 119.155 188.072 119.155C187.971 119.256 187.851 119.276 187.73 119.276Z" fill="#13152D"/>
<path d="M223.342 122.077C222.355 122.077 221.367 121.835 220.48 121.372C221.811 120.828 222.717 121.029 223.664 120.969C225.035 120.888 226.284 120.263 227.191 119.236C228.098 118.208 228.542 116.898 228.461 115.527C228.38 114.157 227.755 112.908 226.728 112.001C225.7 111.094 224.37 110.671 223.02 110.731C222.435 110.771 221.871 110.892 221.347 111.134C221.569 109.865 222.254 109.703 222.959 109.643C224.612 109.542 226.204 110.086 227.453 111.174C228.703 112.263 229.428 113.794 229.549 115.447C229.65 117.099 229.106 118.691 228.018 119.941C226.929 121.19 225.398 121.916 223.745 122.037C223.604 122.077 223.483 122.077 223.342 122.077Z" fill="#13152D"/>
<path d="M224.585 119.276C224.243 119.155 220.434 116.213 220.434 116.213C220.434 115.346 224.665 112.223 224.665 112.223C225.31 113.089 221.663 115.79 221.663 115.79L224.907 118.309C224.907 119.216 224.746 119.276 224.585 119.276Z" fill="#13152D"/>
<path d="M264.274 234.893C263.69 234.893 263.105 234.873 262.501 234.813C253.17 234.087 243.255 226.832 243.456 208.654C244.363 226.086 253.754 233.039 262.601 233.724C263.166 233.765 263.71 233.785 264.254 233.785C282.674 233.785 287.047 208.694 288.518 200.291C290.715 187.675 295.612 156.176 295.672 155.854C296.7 156.337 291.803 187.836 289.606 200.472C288.054 209.118 283.581 234.893 264.274 234.893Z" fill="#13152D"/>
<path d="M249.702 201.259C249.359 201.239 249.137 200.956 249.158 200.674C249.843 193.016 251.273 185.942 252.341 181.347C256.573 163.21 261.793 149.566 261.834 149.445C262.801 149.969 257.601 163.532 253.389 181.609C252.321 186.164 250.911 193.197 250.226 200.795C250.206 201.037 249.964 201.259 249.702 201.259Z" fill="#13152D"/>
<path d="M206.148 134.25C203.428 134.25 199.518 133.726 196.414 131.247C194.016 129.353 192.424 126.289 191.557 121.896C190.973 118.994 190.852 109.845 190.912 106.862C191.759 106.338 192.001 106.58 192.001 106.882C191.94 110.086 192.102 118.994 192.626 121.694C193.432 125.826 194.903 128.667 197.079 130.401C199.941 132.678 203.589 133.162 206.148 133.162C206.692 134.008 206.45 134.25 206.148 134.25Z" fill="#13152D"/>
<path d="M206.145 134.249C208.704 133.161 212.331 132.677 215.213 130.4C217.39 128.667 218.861 125.805 219.667 121.694C220.171 119.114 220.272 112.726 220.211 109.078C221.34 111.617 221.32 118.933 220.735 121.916C219.869 126.309 218.277 129.372 215.879 131.267C212.775 133.745 208.865 134.249 206.145 134.249Z" fill="#13152D"/>
<path d="M220.033 109.623C209.715 109.623 199.094 99.9293 196.393 97.2893C195.708 99.4658 193.814 105.048 191.879 107.245C193.29 104.02 195.607 96.1808 195.628 96.1002C196.655 95.9994 209.352 109.018 220.718 108.514C220.516 109.623 220.275 109.623 220.033 109.623Z" fill="#13152D"/>
<path d="M197.249 137.838C196.906 137.798 196.684 137.536 196.704 137.234C196.987 134.211 197.087 131.45 197.087 131.43C198.175 131.49 198.095 134.271 197.793 137.334C197.752 137.637 197.511 137.838 197.249 137.838Z" fill="#13152D"/>
<path d="M215.047 137.575C214.241 134.129 214.16 131.509 214.16 131.469C215.248 131.469 215.329 134.048 215.591 136.971C215.087 137.575 215.067 137.575 215.047 137.575Z" fill="#13152D"/>
<path d="M188.612 110.752C187.947 109.905 184.723 99.204 188.028 93.6015C188.975 91.9893 190.386 90.9412 192.2 90.4979C192.865 89.6111 195.928 85.8023 201.188 84.8954C208.665 83.5653 220.494 85.4395 223.396 93.6619C224.686 97.3499 224.706 101.562 223.417 109.764C223.598 101.602 223.598 97.5111 222.369 94.0246C219.688 86.3867 208.483 84.714 201.369 85.9635C195.989 86.9107 193.006 91.2436 192.965 91.2839C190.99 91.8683 189.801 92.7148 188.955 94.1457C185.892 99.3451 189.096 109.925 189.116 110.046C188.713 110.731 188.673 110.752 188.612 110.752Z" fill="#13152D"/>
<path d="M158.125 285.477C160.382 279.129 170.983 223.829 167.476 207.969C163.909 191.806 169.632 175.704 169.693 175.543C170.66 176.067 165.038 191.887 168.544 207.727C172.071 223.729 161.37 279.552 158.609 285.175C158.508 285.356 158.306 285.477 158.125 285.477Z" fill="#13152D"/>
<path d="M253.951 285.478C250.706 279.573 240.005 223.749 243.532 207.728C247.019 191.867 241.416 176.067 241.355 175.906C242.444 175.705 248.147 191.807 244.6 207.97C241.114 223.83 251.694 279.129 254.435 284.692C254.112 285.457 254.032 285.478 253.951 285.478Z" fill="#13152D"/>
<path d="M287.309 159.3C284.548 159.3 281.444 158.998 278.24 158.413C270.32 156.982 263.508 154.06 262.017 151.46C261.573 150.674 261.654 150.05 261.795 149.647C262.863 146.704 267.136 146.704 270.521 147.188C267.921 147.893 263.69 147.652 262.823 150.009C262.722 150.271 262.782 150.574 262.964 150.916C264.294 153.214 270.945 155.975 278.442 157.345C282.916 158.151 287.208 158.393 290.533 158.05C293.556 157.728 295.47 156.902 295.652 155.874C295.833 154.907 294.06 153.032 290.352 151.34C293.899 151.763 297.083 154.02 296.72 156.076C296.438 157.688 294.322 158.756 290.654 159.139C289.606 159.24 288.498 159.3 287.309 159.3Z" fill="#13152D"/>
<path d="M194.762 108.999C195.225 105.593 198.933 104.807 201.15 105.311C201.493 106.258 201.211 106.439 200.908 106.379C199.095 105.976 195.991 106.661 195.266 108.656C195.185 108.858 194.983 108.999 194.762 108.999Z" fill="#13152D"/>
<path d="M206.921 126.713C205.652 126.713 204.624 126.39 204.543 126.35C204.906 125.322 207.546 126.149 209.239 125C210.125 124.395 210.629 123.307 210.73 121.775C211.697 123.73 211.032 125.08 209.843 125.907C208.937 126.531 207.869 126.713 206.921 126.713Z" fill="#13152D"/>
<path d="M202.337 121.472C201.793 121.169 200.1 119.617 200.06 118.005C200.04 117.401 200.262 116.857 200.685 116.433C201.168 115.93 201.753 115.688 202.398 115.688C203.103 115.688 203.768 115.99 204.252 116.312C204.574 113.31 204.816 109.118 204.211 108.211C206.207 109.279 205.38 116.071 205.219 117.421C204.03 117.461 203.184 116.776 202.418 116.776C202.075 116.776 201.753 116.917 201.47 117.199C201.188 118.952 202.297 120.141 202.72 120.524C202.619 121.411 202.478 121.472 202.337 121.472Z" fill="#13152D"/>
<path d="M194.474 94.4076C194.03 94.1859 192.277 91.7071 192.277 91.7071C193.164 91.0824 194.917 93.541 194.917 93.541C194.695 94.3673 194.595 94.4076 194.474 94.4076Z" fill="#13152D"/>
<path d="M149.049 197.651C148.505 196.865 148.082 172.057 158.763 155.652C169.525 139.107 193.406 141.304 193.628 141.324C194.091 142.21 193.809 142.452 193.527 142.412C193.285 142.392 170.069 140.276 159.67 156.237C149.17 172.359 149.593 196.845 149.593 197.087C149.049 197.651 149.049 197.651 149.049 197.651Z" fill="#13152D"/>
<path d="M257.071 166.112C255.458 162.424 251.65 156.298 251.629 156.237C241.23 140.256 219.808 142.271 219.586 142.291C219.707 141.183 241.775 139.107 252.536 155.653C252.697 155.915 256.446 161.961 257.574 165.387C257.171 166.092 257.111 166.112 257.071 166.112Z" fill="#13152D"/>
<path d="M175.837 161.779C173.882 161.779 172.27 160.187 172.27 158.212C172.27 156.257 173.862 154.645 175.837 154.645C177.812 154.645 179.404 156.237 179.404 158.212C179.404 160.166 177.812 161.779 175.837 161.779ZM175.837 155.733C174.466 155.733 173.358 156.841 173.358 158.212C173.358 159.582 174.466 160.69 175.837 160.69C177.207 160.69 178.315 159.582 178.315 158.212C178.315 156.841 177.207 155.733 175.837 155.733Z" fill="white"/>
<path d="M302.218 255.853C301.775 255.007 322.069 224.898 322.069 224.898C322.976 225.503 302.662 255.611 302.662 255.611C302.581 255.753 302.399 255.853 302.218 255.853Z" fill="white"/>
<path d="M198.309 86.8709C197.564 86.2864 189.785 77.1371 192.606 70.9501C194.198 67.4838 198.773 65.7305 206.189 65.7305C213.605 65.7305 218.16 67.4636 219.712 70.9098C222.493 77.0564 214.573 86.1454 214.23 86.5283C213.484 85.7222 221.203 76.8548 218.724 71.3531C217.374 68.3503 213.142 66.8187 206.189 66.8187C199.216 66.8187 194.984 68.3705 193.593 71.3934C191.054 76.9355 198.632 85.8632 198.712 85.964C198.571 86.8305 198.45 86.8709 198.309 86.8709Z" fill="#13152D"/>
<path d="M206.085 140.476C195.848 140.476 195.102 135.619 195.082 135.418C196.17 135.317 196.896 139.388 206.085 139.388C215.255 139.388 215.739 135.337 215.739 135.297C216.827 135.599 216.363 140.476 206.085 140.476Z" fill="#13152D"/>
<path d="M196.06 143.884C192.05 142.091 189.793 139.189 189.793 136.025C189.793 134.171 190.861 131.591 195.919 129.777C192.695 132.095 190.881 133.848 190.881 136.025C190.881 138.745 192.896 141.305 196.282 142.857C196.464 143.763 196.282 143.884 196.06 143.884Z" fill="#13152D"/>
<path d="M206.604 145.798C205.052 145.798 203.581 145.718 202.211 145.536C203.682 144.629 205.113 144.71 206.604 144.71C216.822 144.71 222.324 140.236 222.324 136.024C222.324 133.827 220.248 131.913 216.459 130.623C221.074 131.046 223.412 133.344 223.412 136.024C223.412 140.76 217.527 145.798 206.604 145.798Z" fill="#13152D"/>
<path d="M193.465 150.493C193.123 150.472 192.901 150.21 192.921 149.908C193.385 143.802 192.297 141.444 192.297 141.404C193.325 141.041 194.493 143.52 194.01 149.989C193.989 150.291 193.748 150.493 193.465 150.493Z" fill="#13152D"/>
<path d="M219.449 150.494C218.421 143.541 219.61 141.103 219.65 141.002C220.617 141.506 219.529 143.823 219.993 149.91C219.469 150.494 219.469 150.494 219.449 150.494Z" fill="#13152D"/>
<path d="M153.411 166.473L148.663 151.218C148.325 149.123 148.862 156.508 132.981 158.765C117.121 161.042 114.668 156.996 114.668 156.996C114.668 156.996 117.558 177.557 118.485 183.402C119.412 189.266 122.093 208.815 126.627 219.516C131.162 230.217 139.021 237.492 151.939 234.449C164.858 231.406 166.893 213.228 166.893 213.228C169.063 197.643 159.81 194.449 153.411 166.473Z" fill="#FFD400"/>
<path d="M140.411 148.474C140.411 148.474 141.499 154.722 142.648 155.467C143.777 156.213 149.057 153.069 148.15 150.51C147.263 147.97 140.411 148.474 140.411 148.474Z" fill="#13152D"/>
<path d="M120.315 151.699C120.315 151.699 123.035 157.302 122.793 159.579C122.793 159.579 114.793 159.619 114.309 156.496C113.926 154.037 120.315 151.699 120.315 151.699Z" fill="#13152D"/>
<path d="M146.214 235.798C146.798 235.798 147.383 235.777 147.988 235.717C157.319 234.991 167.234 227.736 167.032 209.558C166.125 226.991 156.734 233.944 147.887 234.629C147.323 234.669 146.778 234.689 146.234 234.689C127.814 234.689 123.441 209.599 121.97 201.195C119.773 188.579 114.877 157.08 114.816 156.758C113.788 157.241 118.685 188.741 120.882 201.376C122.434 210.022 126.908 235.798 146.214 235.798Z" fill="#13152D"/>
<path d="M160.783 202.165C161.125 202.145 161.347 201.863 161.327 201.58C160.642 193.922 159.211 186.849 158.143 182.254C153.911 164.116 148.691 150.472 148.651 150.352C147.683 150.876 152.883 164.439 157.095 182.516C158.163 187.07 159.573 194.104 160.259 201.701C160.279 201.943 160.521 202.165 160.783 202.165Z" fill="#13152D"/>
<path d="M123.18 160.204C125.94 160.204 129.044 159.902 132.248 159.318C140.168 157.887 146.98 154.964 148.472 152.365C148.915 151.579 148.834 150.954 148.693 150.551C147.625 147.609 143.353 147.609 139.967 148.092C142.567 148.798 146.799 148.556 147.665 150.914C147.766 151.176 147.706 151.478 147.524 151.821C146.194 154.118 139.544 156.879 132.047 158.249C127.573 159.056 123.28 159.297 119.955 158.955C116.932 158.632 115.018 157.806 114.836 156.778C114.655 155.811 116.428 153.937 120.136 152.244C116.59 152.667 113.406 154.924 113.768 156.98C114.05 158.592 116.166 159.66 119.834 160.043C120.882 160.144 121.991 160.204 123.18 160.204Z" fill="#13152D"/>
<path d="M142.746 156.233C141.557 151.82 139.22 145.492 140.127 144.061C141.316 142.146 142.626 140.998 143.895 139.909C144.379 139.486 144.863 139.083 145.286 138.66C147.926 136.08 147.301 134.085 146.918 133.36C146.173 131.949 144.359 131.244 142.545 131.627C139.26 132.312 135.31 136.181 132.126 139.285C130.01 141.34 123.48 141.34 121.122 141.199C120.82 141.159 120.558 141.401 120.538 141.703C121.404 142.308 130.05 142.832 132.589 140.333C135.794 137.209 139.764 133.299 142.746 132.675C144.097 132.393 145.427 132.876 145.951 133.864C146.535 134.952 146.012 136.423 144.52 137.874C144.097 138.297 143.633 138.68 143.17 139.083C141.9 140.172 140.469 141.421 139.179 143.477C137.708 145.834 141.477 154.258 142.243 155.911C142.343 156.112 142.525 156.233 142.746 156.233Z" fill="#13152D"/>
<path d="M123.077 160.245C123.46 160.185 123.662 159.923 123.622 159.62C123.561 159.258 122.231 150.894 118.039 149.907C113.968 148.96 103.408 143.8 102.279 138.581C102.118 137.875 102.3 137.271 102.783 136.828C103.468 136.203 104.617 136.021 105.806 136.384C108.225 137.11 117.132 142.269 117.213 142.329C117.656 142.39 126.584 141.322 130.574 145.634C127.289 140.495 119.007 141.16 117.616 141.301C116.367 140.576 108.507 136.082 106.129 135.356C104.577 134.893 103.025 135.155 102.058 136.042C101.292 136.747 100.99 137.755 101.212 138.843C102.522 144.929 114.23 150.169 117.777 150.995C120.679 151.68 122.191 157.605 122.533 159.822C122.574 160.044 122.795 160.245 123.077 160.245Z" fill="#13152D"/>
<path d="M125.348 142.289C124.179 140.394 111.341 132.494 108.762 132.837C106.464 133.079 105.577 134.872 105.436 135.779C106.525 135.86 106.867 134.127 108.882 133.905C110.595 133.703 119.705 138.903 125.065 142.208C125.146 142.248 125.247 142.289 125.348 142.289Z" fill="#13152D"/>
<path d="M130.698 141.382C130.779 140.233 125.459 136.747 124.189 136.061C123.584 135.739 122.859 135.316 122.073 134.852C119.372 133.26 116.007 131.265 113.548 131.144C110.162 130.943 109.477 133.119 109.437 133.22C110.505 133.441 110.989 132.091 113.488 132.232C115.684 132.333 119.05 134.348 121.529 135.799C122.335 136.283 123.06 136.706 123.685 137.029C124.914 137.674 130.356 141.261 130.416 141.301C130.477 141.362 130.577 141.382 130.698 141.382Z" fill="#13152D"/>
<path d="M49.883 121.674C50.793 120.398 51.8837 119.261 52.9129 117.933C51.9355 116.424 51.2295 114.789 50.8563 113.217C50.3634 111.157 50.5237 109.532 51.3701 108.319C52.306 106.968 54.1114 106.455 55.4115 107.145C56.1885 107.563 56.77 108.405 56.9786 109.422C57.6056 112.347 56.0539 115.421 54.229 117.937C56.3361 120.88 59.5521 123.223 63.1971 123.527C64.911 123.675 66.6244 123.283 68.0707 122.512C67.7777 122.209 67.4824 121.888 67.2047 121.565C66.5171 120.738 65.6829 119.625 65.5023 118.28C65.2646 116.509 66.2497 114.719 67.84 113.947C69.1944 113.296 70.6394 113.589 71.7133 114.743C73.2078 116.344 72.817 118.937 71.6808 120.676C71.1716 121.447 70.5396 122.109 69.8048 122.676C72.3893 125.014 75.5068 126.758 78.1165 128.21C78.3704 128.356 78.4662 128.667 78.3225 128.939C78.1764 129.193 77.8472 129.291 77.5933 129.145C74.8679 127.637 71.5944 125.805 68.8976 123.302C67.2272 124.283 65.2023 124.771 63.1248 124.6C59.1517 124.268 55.8023 121.87 53.5594 118.855C52.5738 120.105 51.5644 121.178 50.8251 121.98C50.6187 122.188 50.28 122.215 50.0721 122.009C49.9516 121.917 49.8996 121.798 49.883 121.674ZM55.996 110.022C55.7802 108.952 55.3937 108.355 54.8907 108.098C53.9956 107.606 52.7886 108.146 52.2287 108.942C51.5638 109.896 51.4517 111.209 51.8687 112.973C52.1933 114.317 52.7752 115.699 53.5802 116.996C55.1138 114.862 56.312 112.377 55.996 110.022ZM71.596 116.957C71.5224 116.408 71.3095 115.896 70.9291 115.478C69.9178 114.389 68.8545 114.658 68.2941 114.913C67.125 115.466 66.3885 116.827 66.5596 118.102C66.727 119.214 67.4313 120.165 68.0315 120.877C68.3517 121.249 68.6695 121.603 69.0026 121.936C69.7092 121.427 70.3106 120.806 70.7762 120.113C71.3726 119.185 71.7362 118.001 71.596 116.957Z" fill="#13152D"/>
<path d="M245.145 37.2397C246.518 37.0296 246.913 37.5433 246.815 38.1407L244.222 53.9219C244.124 54.5193 243.602 54.9292 243.004 54.8777C242.407 54.8263 242.012 54.3126 242.131 53.7423L244.724 37.9606C244.744 37.6847 244.913 37.4217 245.145 37.2397Z" fill="#13152D"/>
<path d="M235.958 44.4624C236.754 44.228 252.534 45.5858 252.534 45.5858C253.131 45.6372 253.526 46.1509 253.407 46.7212C253.309 47.3186 252.759 47.7506 252.191 47.6764L236.41 46.3185C235.813 46.2671 235.418 45.7536 235.537 45.1833C235.557 44.9073 235.726 44.6443 235.958 44.4624Z" fill="#13152D"/>
<path d="M266.038 47.9369C267.95 46.4357 270.667 46.6444 272.039 48.4284C273.412 50.2123 272.971 52.9 271.029 54.424C269.117 55.9252 266.429 55.6938 265.056 53.9098C263.684 52.1259 264.125 49.4381 266.038 47.9369ZM269.802 52.8292C270.758 52.0786 271.008 50.7118 270.301 49.7928C269.615 48.9008 268.25 48.7583 267.265 49.5316C266.308 50.2822 266.059 51.6486 266.766 52.5676C267.502 53.4639 268.846 53.5798 269.802 52.8292Z" fill="#13152D"/>
<path d="M130.722 52.7367C128.594 52.7367 126.82 50.9959 126.82 48.8683C126.82 46.7407 128.562 45 130.722 45C132.849 45 134.59 46.7407 134.59 48.8683C134.59 50.9959 132.849 52.7367 130.722 52.7367ZM130.722 46.9019C129.658 46.9019 128.755 47.7723 128.755 48.8683C128.755 49.9321 129.626 50.8348 130.722 50.8348C131.785 50.8348 132.688 49.9643 132.688 48.8683C132.655 47.8045 131.785 46.9019 130.722 46.9019Z" fill="#13152D"/>
<path d="M318.603 203.403C319.601 203.079 320.259 202.149 320.099 201.326C319.939 200.503 319.004 200.09 318.022 200.408C317.024 200.732 316.365 201.663 316.525 202.486C316.669 203.314 317.605 203.727 318.603 203.403Z" fill="#13152D"/>
<path d="M331.555 200.218C332.601 199.878 333.299 198.891 333.132 198.028C332.962 197.151 331.973 196.726 330.942 197.061C329.896 197.4 329.198 198.387 329.365 199.25C329.517 200.119 330.508 200.557 331.555 200.218Z" fill="#13152D"/>
<path d="M344.462 196.827C345.428 196.513 346.089 195.596 345.931 194.787C345.774 193.977 344.857 193.572 343.891 193.886C342.925 194.199 342.265 195.116 342.422 195.926C342.582 196.749 343.496 197.14 344.462 196.827Z" fill="#13152D"/>
<path d="M321.879 216.425C322.926 216.085 323.624 215.098 323.457 214.235C323.286 213.358 322.313 212.928 321.267 213.267C320.22 213.607 319.522 214.594 319.689 215.457C319.841 216.326 320.833 216.764 321.879 216.425Z" fill="#13152D"/>
<path d="M334.839 213.239C335.934 212.884 336.675 211.854 336.497 210.937C336.319 210.019 335.29 209.565 334.195 209.92C333.1 210.275 332.359 211.305 332.537 212.222C332.715 213.139 333.744 213.594 334.839 213.239Z" fill="#13152D"/>
<path d="M347.752 209.85C348.767 209.52 349.454 208.566 349.29 207.716C349.125 206.866 348.17 206.444 347.156 206.774C346.141 207.103 345.454 208.057 345.619 208.907C345.768 209.762 346.722 210.184 347.752 209.85Z" fill="#13152D"/>
<path d="M325.126 229.243C326.092 228.929 326.753 228.012 326.596 227.203C326.438 226.393 325.522 225.988 324.556 226.302C323.59 226.615 322.929 227.532 323.086 228.342C323.243 229.151 324.16 229.556 325.126 229.243Z" fill="#13152D"/>
<path d="M338.085 226.059C339.099 225.729 339.786 224.775 339.621 223.925C339.456 223.075 338.502 222.653 337.488 222.982C336.474 223.312 335.786 224.266 335.951 225.116C336.116 225.966 337.054 226.393 338.085 226.059Z" fill="#13152D"/>
<path d="M350.993 222.682C351.943 222.374 352.59 221.475 352.436 220.679C352.282 219.883 351.383 219.486 350.433 219.795C349.483 220.103 348.837 221.001 348.991 221.797C349.148 222.607 350.044 222.99 350.993 222.682Z" fill="#13152D"/>
<path d="M114.229 78.2035C109.157 78.2035 105 74.0717 105 68.9748C105 63.878 109.132 59.7461 114.229 59.7461C119.326 59.7461 123.457 63.878 123.457 68.9748C123.457 74.0717 119.301 78.2035 114.229 78.2035ZM114.229 60.8841C109.775 60.8841 106.138 64.5213 106.138 68.9748C106.138 73.4284 109.775 77.0655 114.229 77.0655C118.682 77.0655 122.319 73.4284 122.319 68.9748C122.319 64.5213 118.682 60.8841 114.229 60.8841Z" fill="#13152D"/>
<path d="M390.706 166.412C384.822 166.412 380 161.618 380 155.706C380 149.793 384.793 145 390.706 145C396.618 145 401.412 149.793 401.412 155.706C401.412 161.618 396.59 166.412 390.706 166.412ZM390.706 146.32C385.539 146.32 381.32 150.539 381.32 155.706C381.32 160.872 385.539 165.091 390.706 165.091C395.872 165.091 400.091 160.872 400.091 155.706C400.091 150.539 395.872 146.32 390.706 146.32Z" fill="#13152D"/>
<path d="M346.24 132.802C344.35 132.637 343.322 131.829 342.937 130.6C342.717 129.829 342.808 129.059 342.918 128.545C343.377 126.123 344.864 123.903 346.919 122.288C344.864 119.371 341.909 117.829 338.588 118.123C338.221 118.141 338.019 117.921 338.001 117.628C337.983 117.334 338.203 117.059 338.497 117.04C342.221 116.71 345.524 118.417 347.818 121.646C349.799 120.343 352.185 119.536 354.607 119.536C354.882 119.536 355.194 119.756 355.194 120.086C355.194 120.38 354.937 120.637 354.643 120.637C352.533 120.637 350.331 121.334 348.423 122.6C349.175 123.866 349.781 125.334 350.221 126.967C350.496 127.995 350.772 129.499 350.056 130.784C349.359 132.013 347.818 132.802 346.24 132.802ZM347.506 123.242C345.744 124.637 344.405 126.527 343.983 128.765C343.854 129.407 343.854 129.884 343.983 130.288C344.313 131.371 345.304 131.646 345.873 131.701C347.157 131.829 348.57 131.206 349.084 130.27C349.487 129.554 349.506 128.582 349.139 127.242C348.753 125.756 348.184 124.417 347.506 123.242Z" fill="#13152D"/>
<path d="M101.363 256.837C100.696 256.567 100.678 256.225 100.897 255.984L111.334 244.502C111.553 244.261 111.929 244.208 112.15 244.388C112.391 244.564 112.409 244.906 112.188 245.128L101.752 256.61C101.653 256.739 101.509 256.816 101.363 256.837Z" fill="#13152D"/>
<path d="M112.313 255.301C111.887 255.208 100.407 246.795 100.407 246.795C100.166 246.618 100.148 246.276 100.368 246.054C100.587 245.813 100.964 245.761 101.184 245.94L112.664 254.353C112.905 254.53 112.923 254.871 112.703 255.093C112.603 255.203 112.459 255.28 112.313 255.301Z" fill="#13152D"/>
<path d="M334.842 74.0541L326.843 77.2351L329.783 65.9363L361.607 54.1726L331.984 69.0658L334.842 74.0541Z" fill="#FFD400"/>
<path d="M329.782 65.9378L322.672 52.1738L362.578 53.9244L340.846 84.9793L331.982 69.0674L360.645 54.706L329.782 65.9378Z" fill="#FFD400"/>
<path d="M325.668 77.6674C325.158 77.6624 325.019 77.4435 325.107 77.2044L328.876 67.3458C329.222 67.0147 363.548 53.4735 363.548 53.4735C363.773 53.367 364.1 53.4534 364.175 53.6668C364.251 53.8802 364.09 54.1416 363.82 54.2498L329.753 67.699L326.076 77.3302C326.001 77.4901 325.857 77.6094 325.668 77.6674Z" fill="#13152D"/>
<path d="M326.406 77.6933C325.753 77.4664 325.773 77.2466 325.896 77.0599L332.069 68.9115C332.246 68.6802 332.576 68.5724 332.809 68.6965C333.039 68.808 333.079 69.0883 332.901 69.3196L327.701 76.177L334.78 73.052C335.06 72.9339 335.348 73.0133 335.44 73.2364C335.518 73.4644 335.365 73.7409 335.088 73.8715L326.468 77.6862C326.451 77.6785 326.421 77.6884 326.406 77.6933Z" fill="#13152D"/>
<path d="M328.807 66.186C328.575 66.2583 328.344 66.1918 328.246 66.021L322.223 54.8481C322.761 54.1655 363.225 51.6331 363.225 51.6331C363.47 51.6198 363.653 51.7516 363.663 51.9494C363.674 52.1473 363.517 52.3593 363.289 52.4552L328.848 66.1606C328.851 66.1724 328.836 66.1769 328.807 66.186ZM323.507 54.9894L329.022 65.2144L360.56 52.6623L323.507 54.9894Z" fill="#13152D"/>
<path d="M339.271 85.0471C338.714 84.8843 331.032 71.3034 331.032 71.3034C331.316 70.6554 364.604 53.4499 364.604 53.4499C364.835 53.3349 365.079 53.3614 365.219 53.5013C365.358 53.6413 365.341 53.872 365.186 54.0545L339.577 84.8285C339.502 84.9321 339.39 85.0083 339.271 85.0471ZM332.211 71.158L339.331 83.7572L363.081 55.2156L332.211 71.158Z" fill="#13152D"/>
<path d="M57.704 215.681L63.2514 200H94.6719L86.8167 222.19H55.8696L57.704 215.681Z" fill="#FFD400"/>
<path d="M51.5665 219.589C52.0103 219.278 57.5722 203.568 57.5722 203.568H88.7414C89.0076 203.568 89.2148 203.361 89.2148 203.094C89.2148 202.828 89.0076 202.621 88.7414 202.621H57.232C56.7882 202.932 51.1227 218.953 51.1227 218.953C51.0339 219.204 51.167 219.47 51.4036 219.559C51.448 219.574 51.5074 219.589 51.5665 219.589Z" fill="#13152D"/>
<path d="M80.5812 225.802H49.4121L49.0719 224.855H80.5812C80.8475 224.855 81.0547 225.063 81.0547 225.329C81.0547 225.595 80.8475 225.802 80.5812 225.802Z" fill="#13152D"/>
<path d="M80.7986 225.755C81.2424 225.444 89.0973 203.24 89.0973 203.24C89.1861 202.988 89.053 202.722 88.8163 202.633C88.5649 202.544 88.2987 202.678 88.21 202.914L80.3547 225.119C80.266 225.37 80.399 225.636 80.6357 225.725C80.6801 225.755 80.7394 225.755 80.7986 225.755Z" fill="#13152D"/>
<path d="M64.2031 214.232H22.4127L11.9983 243.671H53.6706L64.2031 214.232Z" fill="#FFD400"/>
<path d="M17.4927 238.404H59.1499C59.4162 238.404 59.6234 238.197 59.6234 237.931C59.6234 237.665 59.4162 237.458 59.1499 237.458H18.1583L28.2325 208.966H69.6828C69.949 208.966 70.1562 208.759 70.1562 208.493C70.1562 208.227 69.949 208.02 69.6828 208.02H27.9071C27.4633 208.33 17.0489 237.783 17.0489 237.783C17.1968 238.331 17.3448 238.404 17.4927 238.404Z" fill="#13152D"/>
<path d="M70.1523 208.876L60.0782 237.368L59.4126 238.315C59.2646 238.315 59.1166 238.241 58.9687 237.693C58.9687 237.693 69.3831 208.24 69.8269 207.93L70.1523 208.876Z" fill="#13152D"/>
<path d="M31.2868 220.683H57.7222C57.9885 220.683 58.1953 220.476 58.1953 220.21C58.1953 219.943 57.9885 219.736 57.7222 219.736H31.2868C31.0205 219.736 30.8133 219.943 30.8133 220.21C30.8133 220.476 31.0353 220.683 31.2868 220.683Z" fill="#13152D"/>
<path d="M29.1188 226.673H55.5542C55.8205 226.673 56.0273 226.466 56.0273 226.2C56.0273 225.934 55.8205 225.727 55.5542 225.727H29.1188C28.8525 225.727 28.6453 225.934 28.6453 226.2C28.6453 226.466 28.8525 226.673 29.1188 226.673Z" fill="#13152D"/>
</svg>
