<svg width="420" height="328" viewBox="0 0 420 328" fill="none" xmlns="http://www.w3.org/2000/svg">
<path d="M327 118.485C327 180.606 276.86 231 214.985 231C153.14 231 103 180.636 103 118.485C103 56.3638 153.14 6.00001 214.985 6.00001C276.86 5.97025 327 56.3638 327 118.485Z" fill="#F0F1F7"/>
<path d="M172.126 120.308C166.584 114.734 157.569 114.734 151.995 120.308L146.517 125.787C140.942 131.361 140.942 140.343 146.517 145.886L186.586 185.956C192.129 191.498 201.143 191.498 206.686 185.956L289.184 105.465C294.726 99.9225 294.726 90.9083 289.184 85.3659L283.705 79.8872C278.163 74.3449 269.149 74.3449 263.574 79.8872L196.62 144.834L172.126 120.308Z" fill="white"/>
<path d="M175.109 134.068C175.109 134.068 152.334 134.514 136.408 157.862C136.408 157.862 131.662 164.424 127.49 178.184C123.317 191.944 118.826 216.184 118.826 216.184C118.826 216.184 115.449 230.836 115.959 240.424C116.5 250.011 120.259 263.166 136.695 265.364L136.153 319.29H253.944L253.402 265.364C253.402 265.364 267.672 265.906 273.373 256.987C279.075 248.068 279.585 237.907 278.024 226.695C276.464 215.515 268.915 184.363 266.94 176.464C264.965 168.596 257.957 155.218 249.994 147.765C242.031 140.311 231.105 134.96 220.53 134.068H175.109Z" fill="#FFD400"/>
<path d="M216.451 95.3674V97.0555C216.451 97.0555 225.242 95.3354 226.293 102.598C226.293 102.598 226.58 112.854 215.941 108.936C215.941 108.936 214.476 119.83 210.685 123.079L210.622 124.608L219.7 133.845L215.431 159.486L205.462 159.614L197.339 148.179L189.536 159.391L179.82 159.455L174.533 134.418L184.662 125.5V123.047C184.662 123.047 179.375 117.505 179.247 109.828C178.387 109.574 170.361 111.835 169.023 103.267C167.685 94.6985 178.705 97.0555 178.705 97.0555V92.5325C178.705 92.5325 183.706 86.2893 185.331 80.4922C185.331 80.4922 196.543 81.4479 204.538 86.831C212.565 92.1822 216.451 95.3674 216.451 95.3674Z" fill="white"/>
<path d="M160.717 161.619C160.717 161.619 152.69 165.569 151.543 172.927C150.396 180.316 151.766 190.095 164.316 195.128L164.603 164.645L160.717 161.619Z" fill="white"/>
<path d="M168.488 157.766L169.921 159.39H174.158C174.158 159.39 170.845 157.925 168.488 157.766Z" fill="white"/>
<path d="M229.992 167.801V177.611C229.992 177.611 223.685 179.3 219.258 179.14C214.83 178.981 208.428 179.936 207.123 184.428C205.817 188.919 209.161 189.556 209.161 189.556C209.161 189.556 205.147 191.021 204.892 194.557C204.637 198.092 206.772 199.239 206.772 199.239C206.772 199.239 205.338 201.628 205.784 203.762C206.262 205.896 207.664 209.018 216.009 209.336C224.387 209.655 231.522 209.241 235.917 206.788C240.345 204.336 241.746 205.068 243.785 197.041C245.823 189.014 245.823 180.892 243.052 177.293C240.313 173.662 240.472 168.279 229.992 167.801Z" fill="white"/>
<path d="M207.035 247.081H187.541C174.768 247.081 164.32 236.634 164.32 223.861V182.867C164.32 170.094 174.768 159.646 187.541 159.646H207.035C219.808 159.646 230.256 170.094 230.256 182.867V223.861C230.287 236.634 219.808 247.081 207.035 247.081Z" fill="white"/>
<path d="M170.138 159.804L161.41 151.363L156.219 156.555L164.596 164.646C164.596 164.646 165.71 159.326 170.138 159.804Z" fill="#FFD400"/>
<path d="M176.132 96.5137C176.132 96.5137 170.271 76.0325 181.578 73.8029C181.578 73.8029 184.891 66.3176 196.453 66.445C208.016 66.5405 214.8 70.3309 217.858 77.7207C220.916 85.1104 218.941 95.367 218.941 95.367L216.425 97.0551V95.367C216.425 95.367 204.321 81.4474 186.101 80.3326C186.101 80.3326 181.355 90.8758 178.743 92.564V97.087L176.132 96.5137Z" fill="#FFD400"/>
<path d="M189.578 159.39L197.031 148.178L205.122 159.008L189.578 159.39Z" fill="#13152D"/>
<path d="M156.229 156.556L161.42 151.364L158.84 148.434L153.457 153.785L156.229 156.556Z" fill="white"/>
<path d="M228.438 245.233C228.438 245.233 231.24 267.371 253.888 273.645L253.442 265.332C253.442 265.332 244.523 264.568 236.91 256.796C229.297 249.024 229.553 244.373 229.553 244.373L228.438 245.233Z" fill="#13152D"/>
<path d="M166.707 246.157C166.707 246.157 164.924 270.078 136.734 273.645L137.181 265.332C137.181 265.332 148.393 266.479 156.005 258.707C163.618 250.935 165.593 245.297 165.593 245.297L166.707 246.157Z" fill="#13152D"/>
<path d="M174.918 89.2188C175.268 93.4233 176.129 96.5129 176.129 96.5129L178.422 96.9906C178.772 96.9587 178.772 92.5632 178.772 92.5632C179.186 92.3084 179.664 91.7988 180.142 91.1617C176.861 92.2128 174.918 89.2188 174.918 89.2188Z" fill="white"/>
<path d="M206.363 87.7852C206.363 87.7852 215.887 90.8429 219.582 88.7088L218.977 96.4808L216.46 97.0223V95.3342L206.363 87.7852Z" fill="white"/>
<path d="M164.325 165.283C163.879 165.092 155.789 157.002 155.789 157.002C155.789 156.078 161.459 150.408 161.459 150.408C162.383 150.44 170.633 159.168 170.633 159.168C169.677 160.059 161.904 151.81 161.904 151.81L157.159 156.556L164.772 164.2C164.644 165.22 164.485 165.283 164.325 165.283Z" fill="#13152D"/>
<path d="M156.237 157.192C155.759 157.001 153.02 154.23 153.02 154.23C153.02 153.306 158.689 147.637 158.689 147.637C159.613 147.637 162.352 150.408 162.352 150.408C161.428 151.332 159.135 149.006 159.135 149.006L154.389 153.752L156.682 156.046C156.587 157.129 156.396 157.192 156.237 157.192Z" fill="#13152D"/>
<path d="M174.577 160.25C171.423 158.529 168.524 158.498 168.492 158.498C168.62 157.192 171.741 157.224 174.895 159.039C175.022 160.154 174.799 160.25 174.577 160.25Z" fill="#13152D"/>
<path d="M248.276 146.075C247.83 144.96 288.76 105.017 288.76 105.017C294.048 99.7299 294.048 91.1296 288.76 85.8421L283.282 80.3636C280.734 77.7835 277.325 76.382 273.694 76.382C270.063 76.382 266.655 77.7835 264.107 80.3636L214.895 128.11C214.003 127.187 263.215 79.4399 263.215 79.4399C266.018 76.6369 269.745 75.0762 273.726 75.0762C277.708 75.0762 281.435 76.6369 284.238 79.4399L289.716 84.9185C295.513 90.7156 295.513 100.144 289.716 105.941L248.785 145.884C248.594 146.012 248.435 146.075 248.276 146.075Z" fill="#13152D"/>
<path d="M146.54 146.554C143.259 143.56 141.73 139.833 141.73 135.852C141.73 131.87 143.291 128.143 146.094 125.34L151.572 119.862C154.375 117.059 158.134 115.498 162.084 115.498C166.065 115.498 169.792 117.059 172.595 119.862L180.941 128.207C180.017 129.131 171.671 120.785 171.671 120.785C169.091 118.205 165.683 116.804 162.084 116.804C158.453 116.804 155.044 118.205 152.496 120.785L147.018 126.264C144.438 128.844 143.036 132.252 143.036 135.852C143.036 139.483 144.438 142.891 147.018 145.439C146.858 146.49 146.699 146.554 146.54 146.554Z" fill="#13152D"/>
<path d="M179.863 160.123C179.226 159.581 174.512 134.928 174.512 134.928C174.703 134.354 184.258 124.703 184.258 124.703C185.277 124.83 197.669 146.426 197.669 146.426L210.154 124.576C211.174 124.448 220.188 133.59 220.188 133.59C220.379 134.163 215.984 159.486 215.984 159.486C214.71 159.263 219.041 134.29 219.041 134.29L210.855 126.009L198.242 148.083C197.127 148.083 184.577 126.232 184.577 126.232L175.849 135.023L180.5 159.326C179.926 160.091 179.895 160.123 179.863 160.123Z" fill="#13152D"/>
<path d="M205.761 160.028C205.22 159.742 197.671 148.88 197.671 148.88L190.122 159.742C189.071 159.009 197.129 147.383 197.129 147.383C198.18 147.383 206.303 159.009 206.303 159.009C206.017 159.996 205.889 160.028 205.761 160.028Z" fill="#13152D"/>
<path d="M188.494 97.0554C189.004 96.9599 189.354 97.1829 189.514 99.0622C189.673 101.133 189.131 101.515 188.686 101.483C188.208 101.451 187.762 100.814 187.762 99.3489C187.794 97.8518 187.825 97.1828 188.494 97.0554Z" fill="#13152D"/>
<path d="M205.342 97.0554C205.852 96.9599 206.202 97.1829 206.361 99.0622C206.521 101.133 205.979 101.515 205.533 101.483C205.055 101.451 204.609 100.814 204.609 99.3489C204.609 97.8518 204.641 97.1828 205.342 97.0554Z" fill="#13152D"/>
<path d="M175.847 110.688C173.426 110.561 171.61 109.669 170.304 108.172C168.999 106.674 168.329 104.763 168.457 102.788C168.712 98.7113 172.247 95.5898 176.324 95.8446C177.121 95.8765 177.885 96.0677 178.618 96.3544C177.535 97.3418 176.898 97.1825 176.26 97.1507C174.636 97.087 173.044 97.5966 171.833 98.6795C170.623 99.7625 169.891 101.26 169.763 102.884C169.668 104.509 170.209 106.101 171.292 107.312C172.375 108.554 173.872 109.255 175.496 109.382C176.643 109.446 177.726 109.223 178.681 108.713C178.203 110.401 177.025 110.688 175.847 110.688Z" fill="#13152D"/>
<path d="M174.352 107.344C173.97 106.165 177.856 103.171 177.856 103.171L173.492 99.9544C174.257 98.9033 179.321 102.63 179.321 102.63C179.321 103.681 174.766 107.185 174.766 107.185C174.639 107.312 174.512 107.344 174.352 107.344Z" fill="#13152D"/>
<path d="M219.518 110.688C218.307 110.688 217.161 110.401 216.109 109.859C217.702 109.222 218.817 109.445 219.9 109.382C221.525 109.286 223.021 108.554 224.104 107.311C225.187 106.101 225.729 104.508 225.633 102.884C225.442 99.6348 222.735 97.1503 219.518 97.1503C218.435 97.214 217.766 97.3732 217.129 97.628C217.384 96.0991 218.212 95.908 219.072 95.8443C223.117 95.5576 226.685 98.711 226.94 102.788C227.067 104.763 226.398 106.674 225.092 108.171C223.786 109.668 221.971 110.528 219.996 110.656C219.837 110.688 219.677 110.688 219.518 110.688Z" fill="#13152D"/>
<path d="M221.012 107.343C220.63 107.216 216.043 103.68 216.043 103.68C216.043 102.629 221.108 98.9023 221.108 98.9023C221.872 99.9535 217.541 103.17 217.541 103.17L221.427 106.165C221.395 107.279 221.203 107.343 221.012 107.343Z" fill="#13152D"/>
<path d="M198.942 127.791H196.329C193.08 127.791 188.398 127.122 184.672 123.937C181.805 121.484 179.926 117.567 178.906 111.929C178.237 108.202 178.078 96.4166 178.142 92.5625C179.384 96.7352 179.544 108.234 180.181 111.706C181.168 117.057 182.92 120.752 185.532 122.982C188.94 125.912 193.303 126.517 196.329 126.517H198.942C201.968 126.517 206.331 125.912 209.739 122.982C212.351 120.752 214.104 117.057 215.091 111.706C215.792 107.947 215.792 98.678 215.728 95.3972C217.066 98.678 217.066 108.075 216.365 111.929C215.314 117.567 213.434 121.516 210.599 123.937C206.873 127.122 202.191 127.791 198.942 127.791Z" fill="#13152D"/>
<path d="M184.703 125.818C184.066 125.149 184.066 123.047 184.066 123.047C185.372 123.047 185.34 125.149 185.34 125.149C185.34 125.531 185.054 125.818 184.703 125.818Z" fill="#13152D"/>
<path d="M210.637 125.563C210 124.894 210.064 123.047 210.064 123.047C211.37 123.079 211.306 124.958 211.306 124.958C211.274 125.308 210.988 125.563 210.637 125.563Z" fill="#13152D"/>
<path d="M219.105 97.1829C219.901 87.2131 218.531 81.5114 217.002 77.1795C213.785 68.0697 200.407 66.0629 191.935 67.56C185.532 68.6748 181.932 73.8668 181.901 73.9305C180.308 74.472 179.257 74.9816 178.397 75.7142C178.365 75.7461 175.276 78.4217 175.244 85.27C175.244 90.8123 176.709 96.291 176.741 96.3547C175.435 96.4503 173.938 90.9715 173.938 85.27C173.938 77.7846 177.378 74.8542 177.537 74.7268C178.493 73.8986 179.64 73.3254 180.946 73.0068C181.742 71.9557 185.405 67.4009 191.68 66.286C200.63 64.7253 214.741 66.923 218.213 76.7654C219.805 81.2566 221.207 87.1493 219.742 96.6413C219.71 96.928 219.423 97.1829 219.105 97.1829Z" fill="#13152D"/>
<path d="M254.517 319.926C253.88 318.874 253.848 279.059 252.797 265.203C255.154 278.995 255.154 318.874 255.154 319.257C255.154 319.639 254.867 319.926 254.517 319.926Z" fill="#13152D"/>
<path d="M136.186 319.928C135.549 318.876 135.548 278.997 136.6 265.109C136.854 279.061 136.823 318.876 136.823 319.259C136.823 319.641 136.536 319.928 136.186 319.928Z" fill="#13152D"/>
<path d="M184.027 95.08C184.569 91.0029 189.028 90.0792 191.672 90.6843C189.219 91.4807 185.524 92.277 184.632 94.6659C184.537 94.8889 184.282 95.08 184.027 95.08Z" fill="#13152D"/>
<path d="M210.128 95.0798C208.662 92.2767 204.935 91.4486 202.77 91.9264C205.095 90.0471 209.554 91.0027 210.733 94.188C210.287 95.048 210.191 95.0798 210.128 95.0798Z" fill="#13152D"/>
<path d="M255.471 266.003C245.66 266.003 234.799 259.919 228.683 244.885C237.092 262.053 250.979 266.895 261.522 263.869C284.265 257.339 277.99 228.513 275.952 219.021C275.41 216.504 274.869 214.02 274.327 211.503C271.97 200.514 269.55 189.175 266.651 178.186C260.153 153.245 242.125 136.586 219.637 134.707C242.825 135.312 261.268 152.353 267.925 177.835C270.791 188.856 273.245 200.228 275.602 211.217C276.143 213.733 276.685 216.217 277.226 218.734C279.36 228.513 285.794 258.231 261.905 265.111C259.835 265.684 257.7 266.003 255.471 266.003Z" fill="#13152D"/>
<path d="M215.888 202.389C215.06 202.389 214.295 202.357 213.626 202.325C209.645 202.039 206.714 200.924 205.153 199.076C204.166 197.898 203.72 196.433 203.879 194.776C204.23 191.241 207.287 189.68 208.88 189.361C209.007 190.667 205.503 191.432 205.185 194.904C205.058 196.21 205.376 197.325 206.141 198.216C207.447 199.777 210.09 200.733 213.721 201.019C219.709 201.434 231.304 199.682 231.431 199.682C231.208 201.051 222.194 202.389 215.888 202.389Z" fill="#13152D"/>
<path d="M221.869 193.408C216.009 193.408 210.976 192.325 208.236 190.255C206.962 189.299 206.262 188.216 206.166 187.006C205.975 184.935 206.517 183.215 207.759 181.878C209.893 179.552 214.161 178.374 220.468 178.374C225.405 178.374 229.865 177.418 234.069 175.539C230.215 178.692 225.596 179.68 220.85 179.68C214.575 179.68 210.626 180.699 208.747 182.77C207.759 183.853 207.345 185.222 207.504 186.91C207.568 187.739 208.109 188.535 209.065 189.236C212.441 191.752 221.36 193.217 231.903 191.115C228.623 193.058 225.118 193.408 221.869 193.408Z" fill="#13152D"/>
<path d="M216.398 96.0032C203.466 84.1541 188.941 81.383 186.043 80.9371C185.342 82.8801 182.762 89.7283 179.227 93.0091C182.157 88.5179 184.959 80.109 184.991 80.0134C185.851 79.5994 202.638 81.606 216.844 94.8566C216.748 95.9396 216.557 96.0032 216.398 96.0032Z" fill="#13152D"/>
<path d="M197.919 112.409C195.657 112.409 193.3 111.135 192.312 109.861C191.675 109.001 191.708 108.3 191.867 107.886C192.122 107.154 192.631 106.325 193.204 105.402C194.67 102.981 196.676 99.6684 197.122 94.3809C197.95 100.082 195.753 103.682 194.32 106.071C193.778 106.963 193.332 107.727 193.109 108.332C194.16 110.148 196.326 111.231 198.237 111.135C198.174 112.409 198.046 112.409 197.919 112.409Z" fill="#13152D"/>
<path d="M300.041 321.233L93 319.913C93 318.607 300.041 319.927 300.041 319.927C300.678 320.946 300.391 321.233 300.041 321.233Z" fill="#13152D"/>
<path d="M224.701 247.716H170.137C166.697 247.716 163.895 244.913 163.895 241.505V165.187C163.895 161.746 166.697 158.943 170.137 158.943H174.565C174.565 160.249 170.137 160.249 170.137 160.249C167.43 160.249 165.2 162.447 165.2 165.187V241.505C165.2 244.213 167.398 246.442 170.137 246.442H224.701C227.409 246.442 229.638 244.244 229.638 241.505V208.793C230.944 208.793 230.944 241.505 230.944 241.505C230.912 244.945 228.109 247.716 224.701 247.716Z" fill="#13152D"/>
<path d="M230.276 178.278C229.639 177.641 229.639 165.187 229.639 165.187C229.639 162.479 227.441 160.249 224.702 160.249H174.566C174.566 158.943 224.702 158.943 224.702 158.943C228.142 158.943 230.945 161.746 230.945 165.187V177.609C230.913 177.991 230.627 178.278 230.276 178.278Z" fill="#13152D"/>
<path d="M220.507 210.482C215.856 210.354 208.434 210.163 206.014 206.023C203.848 201.563 206.173 199.461 206.269 199.365C207.065 200.385 205.472 201.914 207.033 205.163C209.199 208.857 216.397 209.049 219.455 209.144C225.412 209.24 231.464 208.093 236.91 205.64C241.433 203.602 243.217 198.219 243.918 195.193C245.033 190.16 244.747 184.459 243.058 179.171C239.395 167.672 230.7 168.373 230.349 168.437C230.318 167.131 240.287 166.239 244.3 178.789C246.052 184.299 246.371 190.224 245.192 195.479C244.46 198.76 242.485 204.589 237.452 206.819C232.133 209.24 226.304 210.482 220.507 210.482Z" fill="#13152D"/>
<path d="M262.683 229.847C253.605 194.045 243.826 181.559 243.73 181.463C245.132 181.145 254.751 193.408 263.319 229.051C262.778 229.847 262.714 229.847 262.683 229.847Z" fill="#13152D"/>
<path d="M139.34 266.002C137.142 266.002 134.976 265.684 132.937 265.11C109.048 258.262 115.482 228.512 117.616 218.733C118.158 216.249 118.699 213.732 119.241 211.248C121.598 200.259 124.05 188.887 126.917 177.834C133.542 152.352 152.017 135.312 175.078 133.4C152.686 136.554 134.657 153.213 128.159 178.153C125.293 189.174 122.84 200.513 120.483 211.502C119.941 214.019 119.4 216.503 118.859 218.988C116.82 228.448 110.545 257.306 133.287 263.836C143.862 266.862 157.719 262.02 164.917 244.374C160.012 259.918 149.182 266.002 139.34 266.002Z" fill="#13152D"/>
<path d="M132.18 229.848C140.079 193.472 150.367 174.329 150.463 174.17C151.514 174.966 141.289 193.982 132.817 229.37C132.753 229.657 132.466 229.848 132.18 229.848Z" fill="#13152D"/>
<path d="M164.275 195.765C161.185 195.16 159.019 193.886 156.407 191.242C148.126 182.961 149.336 172.513 153.955 166.302C155.866 163.722 157.682 162.352 160.58 160.664C158.446 163.435 156.822 164.645 155.006 167.066C150.706 172.832 149.623 182.579 157.331 190.319C159.752 192.739 161.759 193.918 164.402 194.459C164.848 195.574 164.593 195.765 164.275 195.765Z" fill="#13152D"/>
<path d="M197.665 294.86C197.028 294.191 197.027 256.828 197.027 256.828C198.333 256.828 198.334 294.223 198.334 294.223C198.302 294.541 198.015 294.86 197.665 294.86Z" fill="#13152D"/>
<path d="M199.448 118.81C198.716 118.81 197.887 118.715 197.027 118.46C199.384 117.727 200.977 117.568 202.124 116.644C204.322 114.892 204.194 110.911 204.194 110.879C205.5 111.006 205.66 115.466 202.952 117.632C201.965 118.428 200.818 118.81 199.448 118.81Z" fill="#13152D"/>
<path d="M214.385 179.554H177.5C177.5 178.248 214.385 178.248 214.385 178.248C215.054 179.267 214.768 179.554 214.385 179.554Z" fill="#13152D"/>
<path d="M205.756 191.974H177.535C177.535 190.668 205.756 190.668 205.756 190.668C206.393 191.687 206.106 191.974 205.756 191.974Z" fill="#13152D"/>
<path d="M205.692 204.398H177.535C177.535 203.092 205.692 203.092 205.692 203.092C206.329 204.111 206.043 204.398 205.692 204.398Z" fill="#13152D"/>
<path d="M214.385 216.82H177.5C177.5 215.514 214.385 215.514 214.385 215.514C215.054 216.533 214.768 216.82 214.385 216.82Z" fill="#13152D"/>
<path d="M182.92 77.4991C182.346 77.1169 180.754 73.8362 180.754 73.8362C181.932 73.2629 183.493 76.5755 183.493 76.5755C183.111 77.4673 183.015 77.4991 182.92 77.4991Z" fill="#13152D"/>
<path d="M75.7986 70.5969C73.1576 70.5969 71 68.4395 71 65.7984C71 63.145 73.1576 61 75.7986 61C78.452 61 80.5972 63.1574 80.5972 65.7984C80.6096 68.4395 78.452 70.5969 75.7986 70.5969ZM75.7986 61.5827C73.48 61.5827 71.583 63.4798 71.583 65.7984C71.583 68.1171 73.4676 70.0142 75.7986 70.0142C78.1296 70.0142 80.0142 68.1171 80.0142 65.7984C80.0142 63.4674 78.1296 61.5827 75.7986 61.5827Z" fill="#13152D"/>
<path d="M324.299 43.5969C323.033 43.5969 322 42.5635 322 41.2984C322 40.0275 323.033 39 324.299 39C325.569 39 326.597 40.0334 326.597 41.2984C326.603 42.5635 325.569 43.5969 324.299 43.5969ZM324.299 39.2791C323.188 39.2791 322.279 40.1878 322.279 41.2984C322.279 42.4091 323.182 43.3178 324.299 43.3178C325.415 43.3178 326.318 42.4091 326.318 41.2984C326.318 40.1819 325.415 39.2791 324.299 39.2791Z" fill="#13152D"/>
<path d="M330.799 33.5969C328.708 33.5969 327 31.8891 327 29.7984C327 27.698 328.708 26 330.799 26C332.899 26 334.597 27.7078 334.597 29.7984C334.607 31.8891 332.899 33.5969 330.799 33.5969ZM330.799 26.4613C328.963 26.4613 327.462 27.963 327.462 29.7984C327.462 31.6339 328.953 33.1356 330.799 33.1356C332.644 33.1356 334.136 31.6339 334.136 29.7984C334.136 27.9532 332.644 26.4613 330.799 26.4613Z" fill="#13152D"/>
<path d="M348.827 248.822H323.012C322.739 248.438 327.24 235.691 327.24 235.691C327.798 235.89 323.421 248.239 323.421 248.239H348.815C349.125 248.686 348.988 248.822 348.827 248.822Z" fill="#13152D"/>
<path d="M355.358 230.583H334.602C334.602 230 355.358 230 355.358 230C355.643 230.446 355.519 230.583 355.358 230.583Z" fill="#13152D"/>
<path d="M348.827 248.823C348.579 248.748 348.492 248.587 348.554 248.438L355.002 230.199C355.56 230.398 349.1 248.637 349.1 248.637C349.063 248.748 348.951 248.823 348.827 248.823Z" fill="#13152D"/>
<path d="M21.1655 182.652L58.5115 190.417C58.5115 190.417 57.7789 201.768 52.4699 213.545C47.1609 225.323 44.0033 231.471 44.0033 231.471L2.17188 223.171C2.17188 223.171 8.30466 224.483 14.7426 205.322C21.1652 186.115 21.1655 182.652 21.1655 182.652Z" fill="white"/>
<path d="M32.9258 160.256L38.1126 185.001L66.4425 178.99L59.6996 156L32.9258 160.256Z" fill="#FFD400"/>
<path d="M348.121 193.263C348.121 193.263 360.729 184.371 370.738 169.711C370.738 169.711 385.034 186.264 392.352 189.843C399.671 193.423 402.818 195.999 415.357 193.81C415.357 193.81 413.009 203.591 389.753 212.529C366.178 221.58 348.121 193.263 348.121 193.263Z" fill="#F0F1F7"/>
<path d="M27.1286 188.387C27.1286 188.387 26.564 196.503 22.4297 201.873L35.4429 204.39C35.4429 204.39 39.7907 195.572 39.5771 190.797L27.1286 188.387Z" fill="#FFD400"/>
<path d="M369.597 213.531C368.753 213.531 367.864 213.44 366.93 213.257C365.698 213.007 364.398 212.619 363.053 212.049C353.546 208.128 339.593 192.806 339 192.145C348.371 186.491 363.327 168.182 363.487 168C364.65 168.137 372.721 178.876 383.961 188.155C392.898 195.497 402.588 194.744 405.757 194.243C406.692 194.106 407.239 193.946 407.262 193.946C403.614 202.701 398.325 206.646 392.26 206.646C386.993 206.646 382.707 203.613 380.974 202.131C378.831 209.815 375.115 213.531 369.597 213.531ZM340.619 191.894C343.423 194.881 355.438 207.444 363.578 210.795C364.832 211.32 366.063 211.684 367.203 211.912C373.632 213.189 377.759 209.564 379.948 200.718C381.134 200.444 386.036 205.277 392.283 205.277C397.458 205.277 402.109 202.017 406.099 195.565C402.634 196.112 392.488 196.887 383.117 189.204C373.382 181.178 365.995 172.058 364.011 169.528C361.252 172.834 349.123 187.129 340.619 191.894Z" fill="#13152D"/>
<path d="M372.7 213.941C370.694 213.941 368.756 213.713 366.91 213.257C366.545 213.166 366.339 212.801 366.408 212.436C366.476 212.071 366.818 211.843 367.206 211.912C373.613 213.189 377.762 209.563 379.951 200.717C381.137 200.443 386.038 205.277 392.285 205.277C397.803 205.277 402.728 201.561 406.877 194.242C407.059 193.923 407.425 193.809 407.744 193.946C408.063 194.082 408.222 194.447 408.108 194.789C407.972 195.245 404.278 205.938 384.306 211.843C381.547 212.71 377.374 213.941 372.7 213.941ZM381 202.153C379.495 207.534 377.192 210.977 374.046 212.55C377.99 212.345 381.524 211.296 383.941 210.59C387.954 209.404 391.282 208.013 394.041 206.554C393.471 206.622 392.878 206.668 392.308 206.668C386.996 206.645 382.733 203.613 381 202.153Z" fill="#13152D"/>
<path d="M41.9227 228.25C41.8311 228.235 0 219.936 0 219.936C10.9078 217.327 18.5509 179.28 18.6272 178.898C19.1611 178.547 56.5225 186.297 56.5225 186.297C56.8886 188.982 56.5531 191.621 55.8819 194.612C55.8209 194.856 55.5919 195.008 55.3325 194.962C55.0884 194.901 54.9359 194.673 54.9817 194.413C55.5919 191.667 55.9273 189.211 55.9579 187.121L19.4205 179.524C18.5357 183.841 11.8994 214.612 1.89169 219.387L41.6634 227.274C42.6856 225.398 48.3453 214.703 52.205 203.796C52.2813 203.567 52.5561 203.445 52.7849 203.521C53.0138 203.597 53.151 203.856 53.0594 204.101C48.8031 216.137 42.3651 227.884 42.3041 228.006C42.2278 228.159 42.0752 228.25 41.9227 228.25Z" fill="#13152D"/>
<path d="M47.1115 185.2C46.6081 184.59 46.7758 184.346 47.0199 184.3L63.2976 181.051L56.814 158.93L30.9098 163.034L34.983 182.103C35.0287 182.347 34.8762 182.591 34.6321 182.637C34.388 182.698 34.1441 182.53 34.0984 182.286L29.9336 162.744C30.315 162.194 57.0885 157.953 57.0885 157.953C57.302 157.908 57.531 158.06 57.592 158.274L64.3349 181.249C63.984 181.829 47.2333 185.17 47.2333 185.17C47.1723 185.2 47.1421 185.2 47.1115 185.2Z" fill="#13152D"/>
<path d="M45.4661 209.638C45.3746 209.623 19.3634 204.405 19.3634 204.405C19.1194 204.36 18.9516 204.116 19.0126 203.871C19.0584 203.627 19.3026 203.459 19.5467 203.52L45.5578 208.753C45.8019 208.799 45.9696 209.043 45.9086 209.287C45.8628 209.485 45.6797 209.638 45.4661 209.638Z" fill="#13152D"/>
<path d="M43.3603 214.872C43.2688 214.857 17.258 209.64 17.258 209.64C17.0139 209.594 16.8461 209.35 16.9071 209.106C16.9529 208.862 17.1968 208.694 17.4409 208.755L43.4519 213.988C43.696 214.033 43.8638 214.277 43.8028 214.521C43.757 214.72 43.5739 214.872 43.3603 214.872Z" fill="#13152D"/>
<path d="M41.2513 220.105C41.1598 220.089 15.1486 214.872 15.1486 214.872C14.9045 214.826 14.7367 214.582 14.7978 214.338C14.8435 214.094 15.0878 213.926 15.3318 213.987L41.3429 219.22C41.587 219.266 41.7548 219.51 41.6938 219.754C41.648 219.952 41.4649 220.105 41.2513 220.105Z" fill="#13152D"/>
<path d="M40.4136 178.274C40.0322 178.183 39.9101 177.923 39.9864 177.679L42.9158 168.297C43.6786 168.114 50.8181 175.254 50.8181 175.254L55.1963 161.279C55.2726 161.035 55.5169 160.898 55.761 160.989C56.0051 161.066 56.127 161.325 56.0507 161.554L51.4435 176.245C50.6807 176.428 43.5411 169.289 43.5411 169.289L40.8256 177.954C40.7951 178.152 40.612 178.274 40.4136 178.274Z" fill="#13152D"/>
<path d="M33.2262 202.973C33.1347 202.973 20.1367 200.455 20.1367 200.455C23.8439 194.521 24.4542 186.573 24.4542 186.481C24.9882 186.069 37.4368 188.464 37.4368 188.464C38.0166 193.728 33.806 202.347 33.6229 202.713C33.5466 202.866 33.3941 202.973 33.2262 202.973ZM21.0064 199.693L32.967 202.011C33.6993 200.455 36.9027 193.468 36.9027 189.303L25.3086 187.061C25.1255 188.861 24.2559 195.04 21.0064 199.693Z" fill="#13152D"/>
<path d="M16.6362 126.173C16.5825 124.829 16.7239 123.483 16.7237 122.041C15.2669 121.533 13.9275 120.796 12.8474 119.926C11.4291 118.789 10.6828 117.603 10.6189 116.335C10.543 114.926 11.498 113.628 12.7433 113.412C13.4905 113.286 14.3276 113.55 15.0043 114.13C16.9687 115.784 17.5331 118.685 17.6185 121.351C20.5963 122.237 24.0111 122.133 26.6437 120.42C27.8845 119.618 28.8404 118.45 29.4161 117.166C29.0579 117.115 28.6889 117.053 28.3305 116.98C27.429 116.782 26.2773 116.466 25.447 115.649C24.3545 114.574 24.0807 112.841 24.7534 111.48C25.3301 110.326 26.4646 109.764 27.7999 109.981C29.6564 110.28 30.7555 112.244 30.8992 114.021C30.9595 114.812 30.8789 115.593 30.6788 116.365C33.6624 116.589 36.6948 116.131 39.2291 115.741C39.4782 115.707 39.7071 115.867 39.7525 116.127C39.7869 116.376 39.6153 116.616 39.3662 116.651C36.7236 117.063 33.5393 117.544 30.3927 117.267C29.7756 118.811 28.6587 120.208 27.159 121.185C24.289 123.052 20.7553 123.19 17.6476 122.326C17.6364 123.692 17.5159 124.951 17.4363 125.884C17.4057 126.134 17.1903 126.331 16.9407 126.3C16.8106 126.301 16.7126 126.248 16.6362 126.173ZM14.6536 115.055C13.9441 114.443 13.3677 114.241 12.8913 114.332C12.0249 114.469 11.4905 115.471 11.5294 116.305C11.5804 117.302 12.1948 118.251 13.4058 119.228C14.3332 119.968 15.4549 120.599 16.6837 121.055C16.6014 118.801 16.1066 116.485 14.6536 115.055ZM28.8853 111.544C28.5466 111.211 28.1327 110.975 27.655 110.893C26.3956 110.686 25.8157 111.428 25.5699 111.896C25.0679 112.887 25.284 114.197 26.0707 114.971C26.7697 115.638 27.7476 115.912 28.5296 116.079C28.9422 116.162 29.3439 116.234 29.7455 116.285C29.9568 115.568 30.0381 114.83 29.9892 114.115C29.9061 113.173 29.5299 112.178 28.8853 111.544Z" fill="#13152D"/>
</svg>
