<svg width="20" height="20" viewBox="0 0 24 24" fill="none" xmlns="http://www.w3.org/2000/svg">
<path d="M16.0859 2.31088C16.2822 2.11514 16.5644 2 16.8834 2C17.5215 2 18 2.44905 18 3.04778C18 3.34715 17.8896 3.62349 17.681 3.7962L8.74847 12.0058L17.681 20.2038C17.8896 20.388 18 20.6644 18 20.9522C18 21.551 17.5215 22 16.8834 22C16.5644 22 16.2822 21.8849 16.0859 21.6891L6.3681 12.7772C6.13497 12.5815 6 12.2936 6 12.0058C6 11.7064 6.13497 11.4301 6.3681 11.2228L16.0859 2.31088Z" fill="#10083F
"/>
</svg>
