<svg width="20" height="20" viewBox="0 0 24 24" fill="none" xmlns="http://www.w3.org/2000/svg">
<path d="M7.91411 2.31088C7.71779 2.11514 7.43558 2 7.11656 2C6.47853 2 6 2.44905 6 3.04778C6 3.34715 6.11043 3.62349 6.31902 3.7962L15.2515 12.0058L6.31902 20.2038C6.11043 20.388 6 20.6644 6 20.9522C6 21.551 6.47853 22 7.11656 22C7.43558 22 7.71779 21.8849 7.91411 21.6891L17.6319 12.7772C17.865 12.5815 18 12.2936 18 12.0058C18 11.7064 17.865 11.4301 17.6319 11.2228L7.91411 2.31088Z" fill="#10083F"/>
</svg>
